<?xml version="1.0" encoding="UTF-8"?>
<svg id="Dimensions" xmlns="http://www.w3.org/2000/svg" viewBox="0 0 400 100">
  <defs>
    <style>
      .cls-1 {
        fill: #f9fafb;
      }

      .cls-2 {
        fill: #6b7c99;
      }
    </style>
  </defs>
  <g>
    <g>
      <path class="cls-1" d="M186.47,38.7c-.43,1.35-.93,2.99-1.49,4.92-.43,1.49-.92,3.22-1.45,5.17-.54-1.92-1.03-3.63-1.47-5.13-.58-1.96-1.09-3.61-1.53-4.96l-6.04-17.5h-5.12l11.22,31.45h5.81l11.08-31.45h-5.14l-5.87,17.5Z"/>
      <path class="cls-1" d="M218.64,21.21l-11.04,31.45h5.14l2.77-8.29h12.19l2.86,8.29h5.14l-11.25-31.45h-5.83ZM226.33,40.35h-9.46l1.74-5.19c.43-1.35.93-3,1.49-4.95.44-1.51.92-3.25,1.44-5.23.54,1.95,1.02,3.67,1.46,5.16.56,1.93,1.08,3.6,1.55,5.02l1.79,5.19Z"/>
      <path class="cls-1" d="M271.75,39.1c0,.7.01,1.57.04,2.6.03,1.03.07,2.13.14,3.3.03.62.08,1.23.13,1.86-.29-.63-.57-1.24-.86-1.81-.54-1.08-1.06-2.04-1.54-2.9-.49-.86-.92-1.6-1.31-2.22l-11.68-18.72h-5.48v31.45h4.81v-16.78c0-.62-.02-1.45-.05-2.48-.03-1.03-.09-2.22-.16-3.57-.05-.89-.09-1.82-.14-2.8.58,1.09,1.1,2.06,1.54,2.9.65,1.22,1.24,2.29,1.77,3.22.53.93,1.08,1.85,1.64,2.77l10.48,16.74h5.5v-31.45h-4.81v17.9Z"/>
      <path class="cls-1" d="M314.36,45.12c-.49.77-1.1,1.43-1.81,1.95-.72.53-1.51.93-2.37,1.2-.87.27-1.79.41-2.76.41-1.76,0-3.35-.45-4.75-1.34s-2.51-2.22-3.33-3.97c-.82-1.75-1.23-3.89-1.23-6.43s.4-4.68,1.21-6.43c.81-1.75,1.91-3.08,3.32-3.99s3-1.36,4.78-1.36c.97,0,1.9.13,2.77.4.87.27,1.67.67,2.37,1.2.71.54,1.31,1.19,1.8,1.95.49.77.84,1.65,1.03,2.65h4.77c-.26-1.66-.77-3.15-1.51-4.45-.74-1.31-1.68-2.42-2.81-3.33-1.13-.91-2.42-1.61-3.85-2.09s-2.98-.72-4.61-.72c-2.68,0-5.07.65-7.18,1.94-2.11,1.29-3.77,3.15-4.98,5.56-1.21,2.41-1.81,5.3-1.81,8.66s.6,6.23,1.81,8.64c1.21,2.41,2.87,4.26,4.98,5.55,2.11,1.29,4.51,1.93,7.18,1.93,1.71,0,3.29-.26,4.74-.77,1.45-.51,2.74-1.25,3.86-2.21,1.12-.96,2.05-2.08,2.77-3.37s1.2-2.7,1.44-4.25h-4.79c-.19.99-.54,1.87-1.03,2.64Z"/>
      <polygon class="cls-1" points="341.43 48.52 341.43 38.83 355.15 38.83 355.15 34.71 341.43 34.71 341.43 25.34 356.21 25.34 356.21 21.21 336.68 21.21 336.68 52.65 356.34 52.65 356.34 48.52 341.43 48.52"/>
    </g>
    <g>
      <path class="cls-2" d="M174.7,78.38l-5.21-14.23h2.38l2.8,7.92c.21.61.44,1.36.71,2.24.27.88.57,1.93.91,3.13h-.45c.34-1.23.63-2.28.89-3.15.26-.87.49-1.61.69-2.23l2.73-7.92h2.39l-5.14,14.23h-2.7Z"/>
      <path class="cls-2" d="M196.36,78.38v-14.23h9.07v1.87h-6.86v4.24h6.37v1.86h-6.37v4.38h6.92v1.87h-9.12Z"/>
      <path class="cls-2" d="M220.04,78.38v-14.23h2.54l5.42,8.47c.18.28.38.61.61,1,.23.39.46.83.72,1.31.25.49.5,1.02.74,1.59h-.27c-.06-.54-.1-1.08-.13-1.61-.03-.53-.05-1.03-.06-1.49-.01-.46-.02-.86-.02-1.17v-8.1h2.23v14.23h-2.55l-4.86-7.57c-.26-.41-.51-.83-.76-1.25-.25-.42-.52-.91-.82-1.46-.3-.55-.67-1.22-1.1-2.01h.35c.03.7.06,1.36.1,1.96.03.61.06,1.15.07,1.61s.02.84.02,1.12v7.59h-2.23Z"/>
      <path class="cls-2" d="M246.03,66.02v-1.87h11.18v1.87h-4.48v12.36h-2.21v-12.36h-4.5Z"/>
      <path class="cls-2" d="M277.16,78.6c-1.15,0-2.16-.22-3.03-.66-.86-.44-1.53-1.04-2.01-1.81-.47-.77-.71-1.65-.71-2.64v-9.34h2.2v9.16c0,.64.14,1.21.43,1.71.29.5.69.89,1.22,1.17s1.16.43,1.89.43,1.35-.14,1.87-.43c.53-.29.93-.68,1.21-1.17s.43-1.07.43-1.71v-9.16h2.21v9.34c0,.99-.24,1.87-.71,2.64-.47.77-1.14,1.37-2,1.81-.86.44-1.86.66-3.01.66Z"/>
      <path class="cls-2" d="M297.81,78.38v-14.23h5.16c1.11,0,2.03.19,2.77.57.74.38,1.3.91,1.66,1.58.37.68.55,1.45.55,2.32s-.19,1.65-.56,2.31c-.37.66-.93,1.17-1.67,1.53s-1.67.54-2.78.54h-3.88v-1.86h3.66c.71,0,1.28-.1,1.72-.3.43-.2.76-.49.96-.86.21-.38.31-.83.31-1.36s-.1-1-.31-1.38c-.21-.39-.53-.69-.97-.9s-1.01-.32-1.73-.32h-2.71v12.37h-2.2ZM306,78.38l-3.49-6.43h2.45l3.55,6.43h-2.5Z"/>
      <path class="cls-2" d="M322.38,78.38v-14.23h9.07v1.87h-6.86v4.24h6.37v1.86h-6.37v4.38h6.92v1.87h-9.12Z"/>
      <path class="cls-2" d="M350.89,78.62c-1.08,0-2.01-.17-2.8-.51-.79-.34-1.41-.82-1.86-1.45-.45-.63-.69-1.37-.74-2.24h2.21c.05.52.21.94.51,1.28.29.34.67.59,1.15.75.47.17.98.25,1.53.25.61,0,1.16-.09,1.63-.28s.85-.45,1.13-.8c.28-.35.42-.75.42-1.21,0-.41-.12-.75-.36-1.02-.24-.26-.57-.48-.98-.66s-.87-.33-1.4-.46l-1.68-.46c-1.18-.31-2.1-.77-2.76-1.38-.66-.61-.99-1.4-.99-2.38,0-.82.22-1.54.67-2.15.45-.61,1.06-1.09,1.83-1.43.77-.34,1.64-.51,2.61-.51s1.85.17,2.61.51c.75.34,1.34.81,1.77,1.4.43.59.65,1.27.67,2.03h-2.15c-.07-.65-.38-1.15-.91-1.51s-1.22-.53-2.03-.53c-.58,0-1.08.09-1.51.27-.43.18-.76.43-1,.74-.24.32-.35.67-.35,1.07,0,.45.14.82.42,1.09.28.28.62.5,1.02.66.4.16.79.29,1.16.39l1.4.36c.46.11.93.27,1.42.46.49.19.94.45,1.35.75.41.31.75.69,1,1.15.25.46.38,1,.38,1.65,0,.8-.21,1.52-.63,2.15-.42.63-1.03,1.13-1.82,1.48-.8.36-1.76.54-2.89.54Z"/>
    </g>
  </g>
  <g>
    <polygon class="cls-1" points="102.61 21.64 105.92 23.16 103.98 27.27 94.09 48.18 94.02 48.33 81.59 74.6 54.17 16.39 54.17 16.39 43.66 16.39 75.22 88.44 88.15 88.44 114.45 27.27 117.8 28.79 121.88 11.56 102.61 21.64"/>
    <polygon class="cls-2" points="81.55 53.75 89.74 40.89 94.29 38.72 81.55 65.68 68.81 38.72 73.36 40.89 81.55 53.75"/>
  </g>
  <rect class="cls-1" x="145.09" y="3.33" width="1.07" height="93.34"/>
</svg>