<?xml version="1.0" encoding="UTF-8"?>
<svg id="Dimensions" xmlns="http://www.w3.org/2000/svg" viewBox="0 0 1000 1000">
  <defs>
    <style>
      .cls-1 {
        fill: #f9fafb;
      }

      .cls-2 {
        fill: #6b7c99;
      }
    </style>
  </defs>
  <g>
    <polygon class="cls-1" points="642.22 296.76 665.94 307.62 652.01 337.07 581.12 486.95 580.61 488.03 491.54 676.33 295.06 259.12 295.02 259.12 219.73 259.12 445.88 775.49 538.54 775.49 727.02 337.07 751.04 348.03 780.27 224.51 642.22 296.76"/>
    <polygon class="cls-2" points="491.28 526.84 549.97 434.68 582.56 419.16 491.28 612.35 400 419.16 432.59 434.68 491.28 526.84"/>
  </g>
  <path class="cls-1" d="M500.66,954.51c-10.28,0-20.58-.34-30.92-1.04-61.21-4.08-119.8-20.04-174.14-47.42-52.48-26.44-98.79-62.38-137.65-106.8-38.86-44.42-68.32-95.1-87.56-150.62-19.92-57.49-27.95-117.68-23.86-178.89,4.08-61.21,20.04-119.8,47.42-174.14,26.44-52.48,62.38-98.79,106.8-137.65,44.42-38.86,95.1-68.32,150.63-87.56,57.49-19.92,117.68-27.95,178.89-23.86,61.21,4.09,119.8,20.04,174.14,47.42,52.48,26.44,98.79,62.38,137.65,106.8,38.86,44.42,68.32,95.1,87.56,150.62,19.92,57.49,27.95,117.68,23.86,178.9s-20.04,119.8-47.42,174.14c-26.44,52.48-62.38,98.79-106.8,137.65-44.42,38.86-95.1,68.32-150.62,87.56-47.78,16.55-97.43,24.89-147.97,24.89ZM499.36,66.49c-48.21,0-95.55,7.95-141.11,23.74-52.96,18.35-101.29,46.45-143.67,83.52s-76.65,81.25-101.87,131.3c-26.11,51.81-41.32,107.69-45.22,166.09s3.76,115.8,22.75,170.62c18.35,52.96,46.45,101.29,83.52,143.67s81.25,76.65,131.3,101.87c51.81,26.11,107.69,41.32,166.08,45.22,58.4,3.9,115.8-3.76,170.62-22.75,52.96-18.35,101.3-46.45,143.67-83.52s76.65-81.25,101.87-131.3c26.11-51.81,41.32-107.69,45.22-166.08l10.48.7-10.48-.7c3.9-58.39-3.76-115.8-22.75-170.62-18.35-52.96-46.45-101.3-83.52-143.67s-81.25-76.65-131.3-101.87c-51.81-26.11-107.69-41.32-166.09-45.22-9.87-.66-19.71-.99-29.51-.99Z"/>
</svg>