<?xml version="1.0" encoding="UTF-8"?>
<svg id="Dimensions" xmlns="http://www.w3.org/2000/svg" viewBox="0 0 1000 1000">
  <defs>
    <style>
      .cls-1 {
        fill: #f9fafb;
      }

      .cls-2 {
        fill: #6b7c99;
      }
    </style>
  </defs>
  <path class="cls-1" d="M820.29,863.72H179.71c-23.95,0-43.44-19.49-43.44-43.44V179.71c0-23.95,19.49-43.44,43.44-43.44h640.57c23.95,0,43.44,19.49,43.44,43.44v640.57c0,23.95-19.49,43.44-43.44,43.44ZM179.71,157.28c-12.37,0-22.44,10.07-22.44,22.44v640.57c0,12.37,10.07,22.44,22.44,22.44h640.57c12.37,0,22.44-10.07,22.44-22.44V179.71c0-12.37-10.07-22.44-22.44-22.44H179.71Z"/>
  <g>
    <polygon class="cls-1" points="642.22 296.76 665.94 307.62 652.01 337.07 581.12 486.95 580.61 488.03 491.54 676.33 295.06 259.12 295.02 259.12 219.73 259.12 445.88 775.49 538.54 775.49 727.02 337.07 751.04 348.03 780.27 224.51 642.22 296.76"/>
    <polygon class="cls-2" points="491.28 526.84 549.97 434.68 582.56 419.16 491.28 612.35 400 419.16 432.59 434.68 491.28 526.84"/>
  </g>
</svg>